<mxfile host="app.diagrams.net" modified="2023-11-08T05:53:14.575Z" agent="Mozilla/5.0 (Macintosh; Intel Mac OS X 10_15_7) AppleWebKit/537.36 (KHTML, like Gecko) Chrome/119.0.0.0 Safari/537.36 Edg/119.0.0.0" version="21.7.2" etag="fZIhetHON5sSRWommEsT" type="github">
  <diagram name="Page-1" id="ClFmENp21a2jxYzwAgoY">
    <mxGraphModel>
      <root>
        <mxCell id="0" />
        <mxCell id="1" parent="0" />
      </root>
    </mxGraphModel>
  </diagram>
</mxfile>
